<?xml version="1.0" encoding="UTF-8"?>
<svg xmlns="http://www.w3.org/2000/svg" version="1.1" width="100" height="100" viewBox="0 0 100 100"><rect x="0" y="0" width="100" height="100" fill="#ffffff"/><g transform="scale(3.03)"><g transform="translate(0,0)"><path fill-rule="evenodd" d="M9 0L9 1L8 1L8 3L9 3L9 4L8 4L8 8L6 8L6 9L4 9L4 8L3 8L3 9L2 9L2 8L0 8L0 10L1 10L1 9L2 9L2 10L3 10L3 13L2 13L2 11L1 11L1 12L0 12L0 13L2 13L2 14L0 14L0 15L1 15L1 16L0 16L0 18L1 18L1 19L0 19L0 21L1 21L1 19L2 19L2 20L3 20L3 17L2 17L2 14L4 14L4 13L5 13L5 14L6 14L6 15L5 15L5 17L4 17L4 18L5 18L5 20L4 20L4 21L2 21L2 22L0 22L0 23L1 23L1 24L0 24L0 25L1 25L1 24L3 24L3 23L4 23L4 25L7 25L7 24L8 24L8 22L6 22L6 21L7 21L7 20L8 20L8 19L7 19L7 18L6 18L6 17L7 17L7 16L6 16L6 15L7 15L7 14L6 14L6 13L8 13L8 15L9 15L9 16L8 16L8 17L9 17L9 16L11 16L11 17L10 17L10 18L9 18L9 20L10 20L10 21L11 21L11 22L9 22L9 24L10 24L10 25L8 25L8 27L9 27L9 28L10 28L10 31L8 31L8 33L9 33L9 32L10 32L10 31L12 31L12 32L13 32L13 30L14 30L14 32L16 32L16 33L17 33L17 32L18 32L18 31L19 31L19 33L20 33L20 32L21 32L21 33L23 33L23 32L24 32L24 33L25 33L25 32L26 32L26 33L28 33L28 31L29 31L29 33L30 33L30 28L29 28L29 25L30 25L30 22L28 22L28 23L27 23L27 21L26 21L26 19L27 19L27 20L28 20L28 19L30 19L30 18L31 18L31 19L33 19L33 18L31 18L31 17L29 17L29 16L30 16L30 15L28 15L28 14L29 14L29 13L28 13L28 14L27 14L27 11L28 11L28 10L27 10L27 9L29 9L29 10L31 10L31 12L32 12L32 13L30 13L30 14L31 14L31 16L32 16L32 17L33 17L33 16L32 16L32 14L33 14L33 9L32 9L32 8L30 8L30 9L29 9L29 8L26 8L26 11L24 11L24 12L23 12L23 11L21 11L21 10L22 10L22 7L23 7L23 8L24 8L24 10L25 10L25 8L24 8L24 7L25 7L25 5L24 5L24 3L25 3L25 1L24 1L24 0L21 0L21 1L20 1L20 0L18 0L18 1L20 1L20 2L22 2L22 4L21 4L21 5L19 5L19 4L20 4L20 3L18 3L18 2L16 2L16 1L17 1L17 0L16 0L16 1L14 1L14 0L12 0L12 1L11 1L11 2L9 2L9 1L10 1L10 0ZM22 1L22 2L23 2L23 1ZM14 2L14 3L16 3L16 4L15 4L15 8L14 8L14 6L13 6L13 3L12 3L12 4L9 4L9 5L10 5L10 6L9 6L9 7L10 7L10 8L8 8L8 11L5 11L5 13L6 13L6 12L8 12L8 13L9 13L9 14L10 14L10 15L11 15L11 16L12 16L12 17L11 17L11 18L10 18L10 19L12 19L12 20L13 20L13 21L14 21L14 22L15 22L15 23L14 23L14 24L12 24L12 28L11 28L11 25L10 25L10 26L9 26L9 27L10 27L10 28L11 28L11 30L12 30L12 28L14 28L14 29L15 29L15 31L16 31L16 32L17 32L17 31L16 31L16 30L18 30L18 29L19 29L19 31L24 31L24 30L21 30L21 27L23 27L23 29L24 29L24 26L19 26L19 25L20 25L20 24L18 24L18 23L17 23L17 24L16 24L16 22L17 22L17 21L18 21L18 22L20 22L20 23L21 23L21 22L23 22L23 23L22 23L22 25L23 25L23 23L25 23L25 22L26 22L26 21L25 21L25 22L24 22L24 20L22 20L22 21L21 21L21 18L22 18L22 19L25 19L25 18L29 18L29 17L28 17L28 16L27 16L27 17L26 17L26 15L25 15L25 17L24 17L24 18L23 18L23 16L24 16L24 15L23 15L23 16L22 16L22 17L19 17L19 15L20 15L20 14L19 14L19 15L18 15L18 14L17 14L17 13L16 13L16 12L18 12L18 13L21 13L21 11L20 11L20 12L18 12L18 11L19 11L19 10L20 10L20 8L21 8L21 7L22 7L22 6L23 6L23 7L24 7L24 5L23 5L23 4L22 4L22 6L21 6L21 7L20 7L20 6L19 6L19 5L18 5L18 6L17 6L17 5L16 5L16 4L18 4L18 3L16 3L16 2ZM11 5L11 6L10 6L10 7L11 7L11 6L12 6L12 8L13 8L13 6L12 6L12 5ZM16 6L16 7L17 7L17 8L15 8L15 9L14 9L14 10L16 10L16 11L14 11L14 12L16 12L16 11L17 11L17 10L16 10L16 9L17 9L17 8L18 8L18 9L19 9L19 8L20 8L20 7L19 7L19 6L18 6L18 7L17 7L17 6ZM10 8L10 10L9 10L9 11L8 11L8 12L9 12L9 11L11 11L11 10L12 10L12 9L11 9L11 8ZM6 9L6 10L7 10L7 9ZM31 9L31 10L32 10L32 9ZM12 12L12 13L10 13L10 14L12 14L12 16L13 16L13 17L15 17L15 16L16 16L16 17L18 17L18 15L17 15L17 16L16 16L16 15L13 15L13 12ZM22 12L22 14L24 14L24 13L23 13L23 12ZM15 13L15 14L16 14L16 13ZM25 13L25 14L26 14L26 13ZM3 15L3 16L4 16L4 15ZM1 17L1 18L2 18L2 17ZM13 18L13 20L14 20L14 21L17 21L17 20L20 20L20 19L17 19L17 20L14 20L14 18ZM6 19L6 20L5 20L5 21L4 21L4 22L5 22L5 21L6 21L6 20L7 20L7 19ZM31 20L31 21L32 21L32 23L31 23L31 24L33 24L33 21L32 21L32 20ZM20 21L20 22L21 22L21 21ZM5 23L5 24L7 24L7 23ZM26 23L26 24L27 24L27 23ZM28 23L28 24L29 24L29 23ZM14 24L14 25L13 25L13 27L15 27L15 24ZM17 24L17 25L16 25L16 26L17 26L17 25L18 25L18 24ZM25 25L25 28L28 28L28 25ZM32 25L32 26L31 26L31 27L32 27L32 26L33 26L33 25ZM26 26L26 27L27 27L27 26ZM16 27L16 28L15 28L15 29L16 29L16 28L17 28L17 29L18 29L18 28L19 28L19 29L20 29L20 28L19 28L19 27ZM31 28L31 29L32 29L32 28ZM8 29L8 30L9 30L9 29ZM25 30L25 31L27 31L27 30ZM32 30L32 31L33 31L33 30ZM31 32L31 33L32 33L32 32ZM0 0L0 7L7 7L7 0ZM1 1L1 6L6 6L6 1ZM2 2L2 5L5 5L5 2ZM26 0L26 7L33 7L33 0ZM27 1L27 6L32 6L32 1ZM28 2L28 5L31 5L31 2ZM0 26L0 33L7 33L7 26ZM1 27L1 32L6 32L6 27ZM2 28L2 31L5 31L5 28Z" fill="#000000"/></g></g></svg>
