<?xml version="1.0" encoding="UTF-8"?>
<svg xmlns="http://www.w3.org/2000/svg" version="1.1" width="100" height="100" viewBox="0 0 100 100"><rect x="0" y="0" width="100" height="100" fill="#ffffff"/><g transform="scale(3.03)"><g transform="translate(0,0)"><path fill-rule="evenodd" d="M8 0L8 1L9 1L9 2L8 2L8 5L9 5L9 4L11 4L11 5L10 5L10 10L9 10L9 8L8 8L8 9L7 9L7 8L6 8L6 9L4 9L4 8L0 8L0 9L2 9L2 11L1 11L1 10L0 10L0 11L1 11L1 12L0 12L0 13L1 13L1 15L0 15L0 17L1 17L1 18L0 18L0 20L1 20L1 19L2 19L2 17L1 17L1 16L3 16L3 17L4 17L4 16L3 16L3 14L4 14L4 15L5 15L5 17L7 17L7 18L6 18L6 19L8 19L8 20L9 20L9 21L11 21L11 20L12 20L12 19L11 19L11 17L10 17L10 16L9 16L9 15L10 15L10 13L11 13L11 16L12 16L12 17L13 17L13 16L12 16L12 14L13 14L13 15L14 15L14 18L13 18L13 21L18 21L18 22L21 22L21 23L22 23L22 25L23 25L23 27L21 27L21 29L20 29L20 31L19 31L19 28L20 28L20 25L19 25L19 26L17 26L17 27L16 27L16 28L15 28L15 31L16 31L16 33L19 33L19 32L20 32L20 31L23 31L23 32L21 32L21 33L24 33L24 32L25 32L25 33L28 33L28 32L30 32L30 33L31 33L31 32L30 32L30 29L31 29L31 28L32 28L32 27L31 27L31 26L29 26L29 25L30 25L30 23L31 23L31 24L32 24L32 25L33 25L33 24L32 24L32 23L33 23L33 21L31 21L31 20L29 20L29 19L30 19L30 18L31 18L31 19L32 19L32 20L33 20L33 19L32 19L32 18L33 18L33 16L31 16L31 14L32 14L32 13L30 13L30 14L29 14L29 15L28 15L28 13L29 13L29 11L31 11L31 12L32 12L32 11L33 11L33 8L32 8L32 9L31 9L31 8L28 8L28 9L31 9L31 10L29 10L29 11L28 11L28 10L27 10L27 9L26 9L26 8L25 8L25 10L24 10L24 7L25 7L25 3L24 3L24 7L23 7L23 5L22 5L22 4L23 4L23 2L25 2L25 1L24 1L24 0L23 0L23 1L22 1L22 4L21 4L21 5L22 5L22 8L21 8L21 6L20 6L20 4L19 4L19 6L18 6L18 5L17 5L17 4L18 4L18 3L20 3L20 2L18 2L18 3L17 3L17 1L16 1L16 0L12 0L12 1L11 1L11 0L10 0L10 1L9 1L9 0ZM18 0L18 1L21 1L21 0ZM14 1L14 2L11 2L11 4L12 4L12 3L13 3L13 5L12 5L12 6L11 6L11 8L12 8L12 6L13 6L13 8L14 8L14 9L15 9L15 7L16 7L16 6L15 6L15 5L16 5L16 4L17 4L17 3L16 3L16 1ZM14 3L14 5L13 5L13 6L14 6L14 7L15 7L15 6L14 6L14 5L15 5L15 4L16 4L16 3ZM8 6L8 7L9 7L9 6ZM17 6L17 7L18 7L18 6ZM19 6L19 7L20 7L20 6ZM18 8L18 9L19 9L19 8ZM22 8L22 10L21 10L21 13L20 13L20 12L18 12L18 11L17 11L17 9L16 9L16 10L14 10L14 11L11 11L11 13L12 13L12 12L13 12L13 14L14 14L14 15L16 15L16 16L15 16L15 17L16 17L16 16L17 16L17 19L20 19L20 15L19 15L19 14L18 14L18 15L17 15L17 14L16 14L16 13L15 13L15 14L14 14L14 12L18 12L18 13L20 13L20 14L22 14L22 12L24 12L24 11L23 11L23 8ZM6 9L6 10L7 10L7 11L5 11L5 10L3 10L3 11L4 11L4 12L5 12L5 13L4 13L4 14L5 14L5 13L6 13L6 14L8 14L8 13L6 13L6 12L7 12L7 11L8 11L8 10L7 10L7 9ZM11 9L11 10L12 10L12 9ZM19 10L19 11L20 11L20 10ZM31 10L31 11L32 11L32 10ZM26 11L26 13L25 13L25 14L24 14L24 13L23 13L23 15L24 15L24 16L22 16L22 17L24 17L24 18L23 18L23 19L22 19L22 18L21 18L21 20L20 20L20 21L21 21L21 22L23 22L23 19L25 19L25 18L26 18L26 19L27 19L27 20L24 20L24 22L25 22L25 23L26 23L26 22L25 22L25 21L27 21L27 24L28 24L28 22L29 22L29 23L30 23L30 22L29 22L29 20L28 20L28 19L29 19L29 18L26 18L26 17L25 17L25 15L26 15L26 14L27 14L27 11ZM1 12L1 13L2 13L2 14L3 14L3 12ZM6 15L6 16L7 16L7 17L9 17L9 19L10 19L10 20L11 20L11 19L10 19L10 17L9 17L9 16L7 16L7 15ZM18 15L18 17L19 17L19 15ZM29 15L29 16L30 16L30 15ZM27 16L27 17L28 17L28 16ZM31 17L31 18L32 18L32 17ZM3 19L3 20L2 20L2 22L3 22L3 24L2 24L2 23L1 23L1 24L0 24L0 25L1 25L1 24L2 24L2 25L4 25L4 23L5 23L5 24L6 24L6 25L8 25L8 26L9 26L9 28L11 28L11 29L10 29L10 30L9 30L9 29L8 29L8 33L14 33L14 32L13 32L13 30L14 30L14 29L12 29L12 28L14 28L14 27L15 27L15 26L16 26L16 25L18 25L18 24L20 24L20 23L18 23L18 24L16 24L16 23L17 23L17 22L16 22L16 23L15 23L15 22L14 22L14 23L11 23L11 25L10 25L10 23L8 23L8 22L6 22L6 21L7 21L7 20L6 20L6 21L5 21L5 19ZM21 20L21 21L22 21L22 20ZM0 21L0 22L1 22L1 21ZM3 21L3 22L4 22L4 21ZM5 22L5 23L6 23L6 24L8 24L8 23L6 23L6 22ZM12 24L12 26L10 26L10 25L9 25L9 26L10 26L10 27L11 27L11 28L12 28L12 26L13 26L13 27L14 27L14 26L15 26L15 24ZM13 25L13 26L14 26L14 25ZM25 25L25 28L28 28L28 25ZM26 26L26 27L27 27L27 26ZM17 27L17 28L16 28L16 29L17 29L17 30L16 30L16 31L17 31L17 30L18 30L18 28L19 28L19 27ZM29 28L29 29L26 29L26 30L25 30L25 31L26 31L26 32L28 32L28 31L29 31L29 29L30 29L30 28ZM11 29L11 30L10 30L10 31L9 31L9 32L10 32L10 31L11 31L11 32L12 32L12 31L11 31L11 30L12 30L12 29ZM21 29L21 30L23 30L23 31L24 31L24 30L23 30L23 29ZM32 29L32 30L33 30L33 29ZM26 30L26 31L27 31L27 30ZM18 31L18 32L19 32L19 31ZM32 31L32 32L33 32L33 31ZM0 0L0 7L7 7L7 0ZM1 1L1 6L6 6L6 1ZM2 2L2 5L5 5L5 2ZM26 0L26 7L33 7L33 0ZM27 1L27 6L32 6L32 1ZM28 2L28 5L31 5L31 2ZM0 26L0 33L7 33L7 26ZM1 27L1 32L6 32L6 27ZM2 28L2 31L5 31L5 28Z" fill="#000000"/></g></g></svg>
