<?xml version="1.0" encoding="UTF-8"?>
<svg xmlns="http://www.w3.org/2000/svg" version="1.1" width="100" height="100" viewBox="0 0 100 100"><rect x="0" y="0" width="100" height="100" fill="#ffffff"/><g transform="scale(3.03)"><g transform="translate(0,0)"><path fill-rule="evenodd" d="M9 0L9 1L10 1L10 2L8 2L8 3L9 3L9 4L10 4L10 5L9 5L9 6L8 6L8 8L4 8L4 9L5 9L5 10L6 10L6 11L4 11L4 10L3 10L3 8L0 8L0 9L2 9L2 10L1 10L1 11L0 11L0 12L1 12L1 13L2 13L2 14L1 14L1 15L2 15L2 16L0 16L0 17L2 17L2 18L0 18L0 19L2 19L2 20L1 20L1 21L3 21L3 22L4 22L4 23L3 23L3 25L7 25L7 24L4 24L4 23L5 23L5 22L6 22L6 23L8 23L8 24L9 24L9 23L10 23L10 22L11 22L11 23L12 23L12 24L10 24L10 25L8 25L8 29L9 29L9 30L8 30L8 33L10 33L10 32L11 32L11 33L12 33L12 32L14 32L14 33L15 33L15 32L16 32L16 33L18 33L18 31L19 31L19 29L18 29L18 28L19 28L19 27L18 27L18 26L17 26L17 27L16 27L16 28L15 28L15 29L17 29L17 30L16 30L16 31L15 31L15 30L14 30L14 29L13 29L13 28L12 28L12 27L10 27L10 25L11 25L11 26L12 26L12 24L14 24L14 26L13 26L13 27L14 27L14 26L15 26L15 24L17 24L17 25L18 25L18 24L20 24L20 27L21 27L21 29L20 29L20 30L23 30L23 29L22 29L22 28L23 28L23 27L24 27L24 31L23 31L23 32L22 32L22 31L20 31L20 32L19 32L19 33L25 33L25 30L26 30L26 29L27 29L27 31L26 31L26 32L27 32L27 33L28 33L28 32L30 32L30 30L29 30L29 29L30 29L30 28L29 28L29 27L30 27L30 26L29 26L29 25L30 25L30 24L28 24L28 23L27 23L27 20L29 20L29 21L30 21L30 20L29 20L29 19L30 19L30 18L31 18L31 21L32 21L32 22L31 22L31 24L32 24L32 23L33 23L33 20L32 20L32 19L33 19L33 16L32 16L32 15L33 15L33 12L32 12L32 11L33 11L33 9L32 9L32 11L31 11L31 12L32 12L32 14L31 14L31 13L30 13L30 14L29 14L29 15L28 15L28 14L27 14L27 12L26 12L26 11L29 11L29 12L30 12L30 11L29 11L29 10L31 10L31 8L30 8L30 9L29 9L29 10L27 10L27 8L24 8L24 7L25 7L25 5L24 5L24 3L25 3L25 1L24 1L24 0L21 0L21 1L20 1L20 0L18 0L18 1L19 1L19 2L20 2L20 3L18 3L18 4L17 4L17 5L19 5L19 6L18 6L18 7L17 7L17 6L16 6L16 8L15 8L15 6L14 6L14 5L15 5L15 4L16 4L16 3L17 3L17 0L16 0L16 1L14 1L14 0L12 0L12 1L10 1L10 0ZM13 1L13 2L14 2L14 1ZM11 2L11 3L12 3L12 4L11 4L11 5L10 5L10 6L9 6L9 7L10 7L10 6L11 6L11 8L12 8L12 10L10 10L10 8L9 8L9 9L8 9L8 10L10 10L10 11L6 11L6 12L5 12L5 14L4 14L4 13L3 13L3 14L2 14L2 15L3 15L3 16L2 16L2 17L3 17L3 16L4 16L4 18L2 18L2 19L5 19L5 20L4 20L4 22L5 22L5 20L8 20L8 19L9 19L9 21L8 21L8 22L10 22L10 18L11 18L11 19L12 19L12 20L11 20L11 21L12 21L12 20L13 20L13 21L14 21L14 22L13 22L13 23L14 23L14 22L15 22L15 23L17 23L17 21L15 21L15 20L16 20L16 19L19 19L19 20L18 20L18 22L19 22L19 23L20 23L20 24L21 24L21 22L22 22L22 26L21 26L21 27L23 27L23 24L24 24L24 23L26 23L26 21L25 21L25 22L24 22L24 21L23 21L23 19L25 19L25 20L27 20L27 19L25 19L25 18L26 18L26 17L21 17L21 18L20 18L20 16L19 16L19 15L21 15L21 14L20 14L20 13L21 13L21 12L18 12L18 13L19 13L19 15L18 15L18 18L17 18L17 14L15 14L15 13L17 13L17 12L16 12L16 11L20 11L20 9L21 9L21 7L22 7L22 6L23 6L23 7L24 7L24 6L23 6L23 5L22 5L22 6L21 6L21 4L22 4L22 2L21 2L21 3L20 3L20 6L19 6L19 9L16 9L16 10L14 10L14 8L12 8L12 6L13 6L13 7L14 7L14 6L13 6L13 5L14 5L14 4L13 4L13 3L12 3L12 2ZM15 2L15 3L16 3L16 2ZM23 2L23 3L24 3L24 2ZM20 6L20 7L21 7L21 6ZM22 8L22 10L21 10L21 11L22 11L22 10L23 10L23 11L25 11L25 10L26 10L26 9L25 9L25 10L24 10L24 9L23 9L23 8ZM6 9L6 10L7 10L7 9ZM13 10L13 11L14 11L14 10ZM2 11L2 12L4 12L4 11ZM11 11L11 12L12 12L12 13L11 13L11 15L12 15L12 16L10 16L10 17L11 17L11 18L12 18L12 16L14 16L14 18L13 18L13 19L14 19L14 18L15 18L15 16L16 16L16 15L15 15L15 14L14 14L14 13L13 13L13 12L12 12L12 11ZM6 12L6 13L7 13L7 14L5 14L5 15L4 15L4 16L5 16L5 17L7 17L7 18L5 18L5 19L7 19L7 18L9 18L9 17L8 17L8 16L9 16L9 15L10 15L10 14L9 14L9 12L8 12L8 13L7 13L7 12ZM22 12L22 13L23 13L23 16L24 16L24 13L23 13L23 12ZM13 14L13 15L14 15L14 14ZM26 14L26 15L25 15L25 16L26 16L26 15L27 15L27 14ZM30 14L30 16L27 16L27 18L30 18L30 17L31 17L31 18L32 18L32 17L31 17L31 14ZM6 15L6 16L7 16L7 15ZM21 18L21 20L20 20L20 22L21 22L21 21L22 21L22 18ZM6 21L6 22L7 22L7 21ZM0 22L0 23L1 23L1 24L0 24L0 25L1 25L1 24L2 24L2 23L1 23L1 22ZM29 22L29 23L30 23L30 22ZM25 25L25 28L28 28L28 25ZM31 25L31 27L33 27L33 25ZM26 26L26 27L27 27L27 26ZM9 27L9 28L10 28L10 27ZM11 28L11 29L10 29L10 30L11 30L11 29L12 29L12 28ZM32 29L32 31L31 31L31 33L33 33L33 32L32 32L32 31L33 31L33 29ZM13 30L13 31L14 31L14 30ZM9 31L9 32L10 32L10 31ZM11 31L11 32L12 32L12 31ZM0 0L0 7L7 7L7 0ZM1 1L1 6L6 6L6 1ZM2 2L2 5L5 5L5 2ZM26 0L26 7L33 7L33 0ZM27 1L27 6L32 6L32 1ZM28 2L28 5L31 5L31 2ZM0 26L0 33L7 33L7 26ZM1 27L1 32L6 32L6 27ZM2 28L2 31L5 31L5 28Z" fill="#000000"/></g></g></svg>
