<?xml version="1.0" encoding="UTF-8"?>
<svg xmlns="http://www.w3.org/2000/svg" version="1.1" width="100" height="100" viewBox="0 0 100 100"><rect x="0" y="0" width="100" height="100" fill="#ffffff"/><g transform="scale(3.03)"><g transform="translate(0,0)"><path fill-rule="evenodd" d="M9 0L9 1L8 1L8 2L9 2L9 3L8 3L8 4L10 4L10 7L11 7L11 4L12 4L12 5L13 5L13 6L12 6L12 9L13 9L13 8L14 8L14 9L15 9L15 10L17 10L17 11L16 11L16 12L17 12L17 13L18 13L18 14L20 14L20 16L23 16L23 18L22 18L22 19L21 19L21 17L18 17L18 16L17 16L17 17L16 17L16 15L17 15L17 14L16 14L16 13L12 13L12 11L13 11L13 10L11 10L11 11L10 11L10 9L11 9L11 8L6 8L6 9L7 9L7 10L5 10L5 8L0 8L0 15L1 15L1 13L2 13L2 12L5 12L5 13L7 13L7 14L6 14L6 15L5 15L5 14L4 14L4 16L5 16L5 17L4 17L4 19L3 19L3 17L2 17L2 19L0 19L0 20L1 20L1 21L0 21L0 25L1 25L1 22L3 22L3 23L4 23L4 24L6 24L6 25L8 25L8 27L10 27L10 28L8 28L8 33L11 33L11 31L10 31L10 30L11 30L11 29L12 29L12 30L13 30L13 31L12 31L12 33L13 33L13 32L14 32L14 33L15 33L15 32L14 32L14 31L16 31L16 32L17 32L17 33L20 33L20 32L22 32L22 31L23 31L23 30L24 30L24 31L25 31L25 32L23 32L23 33L25 33L25 32L26 32L26 33L27 33L27 32L28 32L28 33L29 33L29 31L30 31L30 32L31 32L31 33L32 33L32 32L31 32L31 31L30 31L30 30L33 30L33 28L32 28L32 29L30 29L30 28L31 28L31 27L32 27L32 26L33 26L33 24L32 24L32 26L31 26L31 25L30 25L30 24L31 24L31 23L32 23L32 22L33 22L33 21L32 21L32 20L31 20L31 19L32 19L32 18L33 18L33 17L32 17L32 16L31 16L31 15L32 15L32 14L33 14L33 13L31 13L31 15L30 15L30 13L29 13L29 12L27 12L27 13L26 13L26 12L23 12L23 11L22 11L22 9L23 9L23 10L24 10L24 9L25 9L25 11L26 11L26 10L27 10L27 9L28 9L28 8L27 8L27 9L26 9L26 8L25 8L25 6L24 6L24 8L23 8L23 6L22 6L22 5L21 5L21 4L18 4L18 3L17 3L17 2L19 2L19 1L20 1L20 2L21 2L21 3L22 3L22 4L23 4L23 5L24 5L24 4L25 4L25 2L24 2L24 4L23 4L23 3L22 3L22 2L23 2L23 1L24 1L24 0L23 0L23 1L21 1L21 0L18 0L18 1L17 1L17 0L15 0L15 1L17 1L17 2L16 2L16 4L12 4L12 2L13 2L13 1L11 1L11 2L10 2L10 0ZM14 2L14 3L15 3L15 2ZM10 3L10 4L11 4L11 3ZM16 4L16 5L17 5L17 4ZM8 5L8 7L9 7L9 5ZM19 5L19 7L18 7L18 6L17 6L17 7L16 7L16 6L15 6L15 7L14 7L14 6L13 6L13 7L14 7L14 8L15 8L15 7L16 7L16 9L17 9L17 10L19 10L19 12L18 12L18 11L17 11L17 12L18 12L18 13L20 13L20 11L21 11L21 10L19 10L19 9L20 9L20 8L21 8L21 9L22 9L22 8L21 8L21 7L22 7L22 6L21 6L21 5ZM20 6L20 7L19 7L19 8L20 8L20 7L21 7L21 6ZM29 8L29 9L30 9L30 8ZM31 8L31 10L33 10L33 9L32 9L32 8ZM1 9L1 10L2 10L2 11L1 11L1 12L2 12L2 11L5 11L5 10L3 10L3 9ZM7 10L7 11L6 11L6 12L7 12L7 13L8 13L8 12L9 12L9 11L8 11L8 10ZM14 11L14 12L15 12L15 11ZM30 11L30 12L31 12L31 11ZM10 12L10 13L11 13L11 14L7 14L7 15L6 15L6 16L7 16L7 17L6 17L6 18L5 18L5 20L7 20L7 19L8 19L8 24L10 24L10 23L11 23L11 26L10 26L10 27L11 27L11 26L13 26L13 27L12 27L12 29L15 29L15 30L17 30L17 32L18 32L18 31L20 31L20 30L18 30L18 29L20 29L20 28L21 28L21 29L22 29L22 28L21 28L21 26L19 26L19 25L22 25L22 26L24 26L24 25L22 25L22 24L23 24L23 23L24 23L24 24L26 24L26 23L27 23L27 22L29 22L29 21L27 21L27 19L29 19L29 17L30 17L30 19L31 19L31 16L30 16L30 15L29 15L29 17L27 17L27 16L26 16L26 17L27 17L27 18L26 18L26 21L27 21L27 22L25 22L25 21L24 21L24 22L23 22L23 21L22 21L22 20L25 20L25 18L23 18L23 19L22 19L22 20L21 20L21 19L20 19L20 18L19 18L19 19L17 19L17 18L18 18L18 17L17 17L17 18L16 18L16 19L15 19L15 17L14 17L14 16L15 16L15 15L14 15L14 16L13 16L13 17L12 17L12 15L13 15L13 14L12 14L12 13L11 13L11 12ZM21 12L21 13L22 13L22 12ZM24 13L24 14L21 14L21 15L24 15L24 16L25 16L25 15L24 15L24 14L26 14L26 13ZM27 13L27 15L28 15L28 14L29 14L29 13ZM2 14L2 15L3 15L3 14ZM7 15L7 16L11 16L11 15ZM0 17L0 18L1 18L1 17ZM9 17L9 18L8 18L8 19L9 19L9 23L10 23L10 22L11 22L11 21L12 21L12 22L13 22L13 23L12 23L12 25L13 25L13 24L14 24L14 25L15 25L15 24L14 24L14 23L16 23L16 24L17 24L17 25L18 25L18 24L17 24L17 23L18 23L18 22L20 22L20 23L21 23L21 24L22 24L22 23L23 23L23 22L22 22L22 23L21 23L21 21L18 21L18 20L15 20L15 19L14 19L14 20L15 20L15 21L12 21L12 19L13 19L13 18L11 18L11 19L10 19L10 17ZM6 18L6 19L7 19L7 18ZM19 19L19 20L20 20L20 19ZM2 20L2 21L3 21L3 20ZM30 20L30 21L31 21L31 20ZM6 21L6 22L4 22L4 23L6 23L6 24L7 24L7 23L6 23L6 22L7 22L7 21ZM15 21L15 22L17 22L17 21ZM30 22L30 23L31 23L31 22ZM28 23L28 24L29 24L29 23ZM25 25L25 28L28 28L28 25ZM15 26L15 27L14 27L14 28L15 28L15 29L18 29L18 28L20 28L20 27L19 27L19 26L17 26L17 27L16 27L16 26ZM26 26L26 27L27 27L27 26ZM30 26L30 27L31 27L31 26ZM15 27L15 28L16 28L16 27ZM17 27L17 28L18 28L18 27ZM23 28L23 29L24 29L24 30L25 30L25 31L26 31L26 30L27 30L27 31L29 31L29 30L27 30L27 29L24 29L24 28ZM9 31L9 32L10 32L10 31ZM0 0L0 7L7 7L7 0ZM1 1L1 6L6 6L6 1ZM2 2L2 5L5 5L5 2ZM26 0L26 7L33 7L33 0ZM27 1L27 6L32 6L32 1ZM28 2L28 5L31 5L31 2ZM0 26L0 33L7 33L7 26ZM1 27L1 32L6 32L6 27ZM2 28L2 31L5 31L5 28Z" fill="#000000"/></g></g></svg>
